<svg version="1.1" id="Layer_1" xmlns="http://www.w3.org/2000/svg" xmlns:xlink="http://www.w3.org/1999/xlink" x="0px" y="0px"
	 width="100%" viewBox="0 0 100 100" enable-background="new 0 0 100 100" xml:space="preserve">
<path fill="#FCFBFB" opacity="1.000000" stroke="none" 
	d="
M101.000000,64.000000 
	C101.000000,76.308304 101.000000,88.616615 101.000000,100.962463 
	C67.759377,100.962463 34.518696,100.962463 1.000000,100.962463 
	C1.000000,74.979767 1.000000,48.958542 1.349536,22.503281 
	C3.841921,24.558659 6.086939,26.971224 8.057101,29.590528 
	C8.561221,30.260748 8.196250,31.584669 7.954172,32.683830 
	C6.715012,33.710995 5.752247,34.662586 4.530590,35.749939 
	C3.427681,40.617577 6.344842,37.772697 8.249840,37.745018 
	C10.437638,36.215828 12.269506,34.625416 14.408458,33.010353 
	C15.122325,33.030735 15.529106,33.075764 15.997082,33.485947 
	C20.599258,36.516029 27.382391,35.667706 32.377998,31.808733 
	C28.291992,32.155365 24.206099,32.503330 20.073219,32.500870 
	C20.020836,31.438868 20.015436,30.727293 20.109322,29.741924 
	C20.542501,28.994965 20.876396,28.521801 21.552090,27.966675 
	C22.576017,26.159863 23.258142,24.435013 23.940269,22.710163 
	C23.580351,22.324198 23.220432,21.938234 22.860516,21.552269 
	C21.550013,22.255402 20.239510,22.958534 18.635675,23.826927 
	C17.247778,25.058830 16.153215,26.125473 14.673674,27.315670 
	C10.287053,24.102198 6.285411,20.765165 2.778474,17.316849 
	C9.912133,17.767029 16.545496,18.412340 23.192337,18.855513 
	C26.652275,19.086201 27.105583,21.150360 27.030525,23.962488 
	C26.928190,27.796669 28.720835,28.695923 32.081593,26.987026 
	C33.395084,26.319136 34.800789,25.444201 36.194317,25.386732 
	C43.805267,25.072849 44.771332,24.137260 43.479969,16.990437 
	C49.856647,17.951836 56.635571,15.085379 62.103825,20.715237 
	C62.025700,21.696697 62.004902,22.355566 61.643944,23.003799 
	C60.855068,23.048120 60.406353,23.103077 59.596710,23.084148 
	C58.502045,23.043112 57.768311,23.075960 56.650730,23.045912 
	C55.230728,23.018839 54.194569,23.054661 52.846352,23.069233 
	C52.029751,23.345940 51.525208,23.643896 50.702877,24.000710 
	C49.918423,24.467094 49.451752,24.874620 48.643353,25.245548 
	C34.939655,31.007717 31.989506,46.405071 37.895523,55.665970 
	C37.881592,58.192635 37.788033,60.319115 37.727650,61.691593 
	C34.584385,60.218544 32.052578,59.032043 29.697445,57.548775 
	C30.223236,55.693954 30.572353,54.135910 30.921471,52.577862 
	C29.415722,52.367924 27.855263,51.798794 26.414907,52.018188 
	C22.709917,52.582516 19.428469,53.684959 16.321957,56.426033 
	C13.087957,59.279594 13.522472,60.339287 16.487682,62.072083 
	C7.157259,63.744675 14.103402,70.554276 11.526682,74.469719 
	C16.409750,74.065414 20.817753,78.973236 24.973043,74.473534 
	C25.307800,81.477272 30.431959,75.828423 31.799856,77.515053 
	C33.343712,75.418007 34.795673,73.549019 36.103031,71.583832 
	C36.367916,71.185661 36.086674,70.424179 35.972282,69.524017 
	C37.911541,66.291489 39.935726,63.365131 42.028214,60.769859 
	C45.736187,63.061729 49.375866,65.022514 53.311722,67.142334 
	C54.771729,69.177887 55.935558,71.054405 56.867805,73.201752 
	C54.372856,74.221214 51.875084,74.529182 52.409206,78.095337 
	C53.007477,82.089767 54.608753,84.781975 58.987572,85.328407 
	C59.600525,88.236610 60.221733,90.812508 60.842937,93.388405 
	C63.199215,92.783379 65.555489,92.178352 67.971016,91.558113 
	C66.386124,87.348961 66.147636,83.029099 61.009384,82.460175 
	C61.007500,81.430023 61.005795,80.743263 61.386475,80.018509 
	C67.979156,74.125267 60.864834,71.424652 58.962639,68.358192 
	C61.198124,66.702209 63.118969,65.279305 65.431602,63.912399 
	C66.871010,63.877537 67.918625,63.786674 68.934578,64.061302 
	C69.577950,66.519371 70.252991,68.611954 70.928032,70.704536 
	C72.284225,70.164589 73.640411,69.624634 75.364258,69.088524 
	C76.331322,68.401352 76.930740,67.710342 77.885880,67.043846 
	C79.237419,69.517288 80.233231,71.966209 81.172523,74.768051 
	C80.126389,76.703911 79.033325,78.233200 78.176727,79.885101 
	C77.347038,81.485123 76.760521,83.211235 76.015564,85.237427 
	C73.787712,88.222847 74.720947,90.672485 76.912766,92.470390 
	C77.313080,92.798759 79.587250,90.842743 81.210907,89.751167 
	C81.892235,88.676659 82.359077,87.792213 83.201195,86.895233 
	C84.049797,85.585358 84.523140,84.288017 84.964722,82.623535 
	C84.340508,80.516251 83.748055,78.776115 83.503326,76.939438 
	C84.204346,75.514450 84.557625,74.185989 84.951797,72.590286 
	C85.056763,71.967926 85.120819,71.612801 85.491623,71.127136 
	C87.111671,69.361740 88.424973,67.726898 90.132759,66.069977 
	C94.018166,65.365265 97.509079,64.682632 101.000000,64.000000 
z"/>
<path fill="#FFFFFF" opacity="1.000000" stroke="none" 
	d="
M62.161148,20.392645 
	C56.635571,15.085379 49.856647,17.951836 43.479969,16.990437 
	C44.771332,24.137260 43.805267,25.072849 36.194317,25.386732 
	C34.800789,25.444201 33.395084,26.319136 32.081593,26.987026 
	C28.720835,28.695923 26.928190,27.796669 27.030525,23.962488 
	C27.105583,21.150360 26.652275,19.086201 23.192337,18.855513 
	C16.545496,18.412340 9.912133,17.767029 2.552689,17.287018 
	C1.573730,17.202890 1.296331,17.080069 1.000000,17.000000 
	C1.000000,11.684414 1.000000,6.368827 1.000015,1.054706 
	C34.333374,1.056170 67.666718,1.056170 101.000000,1.056170 
	C101.000000,6.427925 101.000000,11.743509 100.633652,17.525269 
	C98.641830,16.959122 96.838997,16.125452 95.421692,14.859999 
	C89.368706,9.455523 86.710815,9.577927 81.755470,15.715437 
	C80.931335,16.736179 80.027023,17.692188 79.181755,18.653099 
	C72.775658,15.693453 66.864532,16.313152 63.705460,20.244438 
	C62.987293,20.333721 62.574219,20.363182 62.161148,20.392645 
z"/>
<path fill="#FCFBFB" opacity="1.000000" stroke="none" 
	d="
M64.010551,20.184614 
	C66.864532,16.313152 72.775658,15.693453 79.181755,18.653099 
	C80.027023,17.692188 80.931335,16.736179 81.755470,15.715437 
	C86.710815,9.577927 89.368706,9.455523 95.421692,14.859999 
	C96.838997,16.125452 98.641830,16.959122 100.633652,17.995720 
	C101.000000,23.354929 101.000000,28.709860 100.627502,34.592049 
	C98.704376,36.309196 97.153755,37.499084 95.296600,38.761189 
	C93.959625,39.541622 92.929184,40.249844 91.540314,40.969906 
	C90.464828,40.984760 89.747765,40.987774 89.005249,40.663334 
	C87.617332,36.893826 86.254890,33.451763 85.207787,29.986801 
	C86.017632,29.631180 86.512146,29.298462 87.338593,28.964458 
	C88.112923,28.974522 88.555298,28.985868 89.176758,29.243835 
	C90.259865,29.113363 91.163887,28.736277 92.405792,28.228142 
	C93.225723,28.083412 93.707779,28.069733 94.426437,27.930870 
	C94.738998,27.469589 94.814964,27.133490 94.694145,26.534832 
	C93.346764,23.776154 92.196159,21.280035 91.002350,18.438179 
	C86.392090,13.792011 83.859283,14.614290 81.788582,21.283178 
	C80.313080,22.739536 79.038704,23.917095 77.453293,24.899700 
	C75.101486,24.110180 73.060730,23.515615 71.011185,22.959702 
	C71.002396,22.998350 71.079964,23.014688 71.423203,22.644697 
	C70.994865,21.832537 70.223282,21.390368 69.140198,20.933567 
	C68.206322,20.956728 67.583939,20.994526 66.673553,20.923279 
	C65.593887,20.604361 64.802216,20.394487 64.010551,20.184614 
z"/>
<path fill="#F1F4ED" opacity="1.000000" stroke="none" 
	d="
M101.000000,63.531376 
	C97.509079,64.682632 94.018166,65.365265 89.826546,66.094482 
	C88.127876,66.408958 87.129898,66.676842 86.137184,66.619606 
	C86.193703,65.646553 86.244972,64.998627 86.625168,64.233017 
	C88.880577,62.146515 90.917030,60.272297 92.709602,58.188301 
	C95.989601,54.375050 94.784279,52.354935 90.057953,51.627350 
	C90.433525,49.270592 90.741768,47.284187 91.326538,45.078281 
	C93.156105,43.361050 94.709137,41.863323 96.649841,40.491394 
	C98.358337,40.744793 99.679169,40.872398 101.000000,41.000000 
	C101.000000,48.354252 101.000000,55.708500 101.000000,63.531376 
z"/>
<path fill="#596547" opacity="1.000000" stroke="none" 
	d="
M1.000000,17.416666 
	C1.296331,17.080069 1.573730,17.202890 2.057984,17.398300 
	C6.285411,20.765165 10.287053,24.102198 14.687025,27.642710 
	C16.003849,28.880426 16.922344,29.914663 17.782379,31.231609 
	C17.420715,31.997488 17.117508,32.480656 16.586189,32.955460 
	C16.358080,32.947102 15.935887,33.120796 15.935887,33.120796 
	C15.529106,33.075764 15.122325,33.030735 13.920338,32.995674 
	C11.493610,32.873180 9.862088,32.740723 8.230566,32.608261 
	C8.196250,31.584669 8.561221,30.260748 8.057101,29.590528 
	C6.086939,26.971224 3.841921,24.558659 1.349536,22.034622 
	C1.000000,20.611111 1.000000,19.222221 1.000000,17.416666 
z"/>
<path fill="#4B573C" opacity="1.000000" stroke="none" 
	d="
M101.000000,40.571541 
	C99.679169,40.872398 98.358337,40.744793 96.575859,40.199184 
	C95.943855,39.417114 95.773491,39.053043 95.603134,38.688976 
	C97.153755,37.499084 98.704376,36.309196 100.627502,35.059654 
	C101.000000,36.714359 101.000000,38.428715 101.000000,40.571541 
z"/>
<path fill="#853873" opacity="1.000000" stroke="none" 
	d="
M24.967932,74.076950 
	C20.817753,78.973236 16.409750,74.065414 11.526682,74.469719 
	C14.103402,70.554276 7.157259,63.744675 16.853477,62.129517 
	C18.787640,63.186760 20.045120,64.335136 21.768602,65.909073 
	C22.685297,65.131035 23.839684,64.151260 25.339350,63.108780 
	C27.153734,64.942703 28.622837,66.839325 29.915499,69.045685 
	C28.148684,70.929253 26.558308,72.503105 24.967932,74.076950 
z"/>
<path fill="#ECE9E8" opacity="1.000000" stroke="none" 
	d="
M53.015545,66.983292 
	C49.375866,65.022514 45.736187,63.061729 42.299126,60.519844 
	C41.643917,58.603073 40.786091,57.267410 40.016930,55.700665 
	C40.105587,55.469585 40.216244,54.987114 40.417679,54.981941 
	C40.619114,54.976765 41.022049,54.968227 41.435364,55.017857 
	C43.233532,55.051289 44.618389,55.035095 46.223152,55.240524 
	C47.295605,56.019505 48.148155,56.576862 49.349533,57.266754 
	C50.801231,56.930214 51.904102,56.461136 53.336716,55.974777 
	C54.318089,56.030277 54.969723,56.103058 55.728390,56.520416 
	C56.903950,57.428833 57.919006,58.286175 59.052628,58.492680 
	C61.127300,58.870617 63.272022,58.863983 65.299240,59.282021 
	C65.108437,59.701241 65.005913,59.856159 64.644089,60.220177 
	C62.668545,61.806892 60.623333,64.591843 59.301369,64.282822 
	C56.086700,63.531368 54.716087,65.217995 53.015545,66.983292 
z"/>
<path fill="#7B356C" opacity="1.000000" stroke="none" 
	d="
M24.994068,63.171486 
	C23.839684,64.151260 22.685297,65.131035 21.768602,65.909073 
	C20.045120,64.335136 18.787640,63.186760 17.164366,61.980953 
	C13.522472,60.339287 13.087957,59.279594 16.321957,56.426033 
	C19.428469,53.684959 22.709917,52.582516 26.414907,52.018188 
	C27.855263,51.798794 29.415722,52.367924 30.921471,52.577862 
	C30.572353,54.135910 30.223236,55.693954 29.437778,57.723549 
	C27.665648,59.853893 26.329857,61.512688 24.994068,63.171486 
z"/>
<path fill="#BAB1AE" opacity="1.000000" stroke="none" 
	d="
M25.339348,63.108780 
	C26.329857,61.512688 27.665648,59.853893 29.261105,58.020321 
	C32.052578,59.032043 34.584385,60.218544 37.727650,61.691593 
	C37.788033,60.319115 37.881592,58.192635 38.180450,55.618176 
	C38.899925,55.424042 39.414097,55.677891 39.928268,55.931740 
	C40.786091,57.267410 41.643917,58.603073 42.230827,60.188759 
	C39.935726,63.365131 37.911541,66.291489 35.634441,69.576904 
	C33.618332,69.535957 31.855135,69.135956 30.091938,68.735954 
	C28.622837,66.839325 27.153734,64.942703 25.339348,63.108780 
z"/>
<path fill="#EDEEE9" opacity="1.000000" stroke="none" 
	d="
M58.995827,84.996101 
	C54.608753,84.781975 53.007477,82.089767 52.409206,78.095337 
	C51.875084,74.529182 54.372856,74.221214 57.230511,73.225258 
	C59.136898,73.450943 60.448994,73.923950 61.595387,74.337227 
	C61.365604,76.559769 61.184845,78.308136 61.004089,80.056496 
	C61.005795,80.743263 61.007500,81.430023 60.723701,82.600723 
	C59.957409,83.721794 59.476616,84.358948 58.995827,84.996101 
z"/>
<path fill="#414F30" opacity="1.000000" stroke="none" 
	d="
M64.903397,60.011074 
	C65.005913,59.856159 65.108437,59.701241 65.626526,59.208107 
	C66.345879,57.616573 66.649673,56.363247 67.093422,54.737793 
	C71.643944,53.090389 76.054504,51.815117 80.465065,50.539848 
	C80.200119,52.150356 79.453758,52.685017 78.837486,53.341755 
	C76.154190,56.201252 73.508759,59.096275 70.555275,61.995575 
	C69.829399,62.573776 69.397820,63.134792 68.966240,63.695812 
	C67.918625,63.786674 66.871010,63.877537 65.427612,63.527504 
	C64.989021,62.061428 64.946205,61.036251 64.903397,60.011074 
z"/>
<path fill="#DEE2D8" opacity="1.000000" stroke="none" 
	d="
M64.644089,60.220177 
	C64.946205,61.036251 64.989021,62.061428 65.035828,63.471504 
	C63.118969,65.279305 61.198124,66.702209 58.962639,68.358192 
	C60.864834,71.424652 67.979156,74.125267 61.386475,80.018509 
	C61.184845,78.308136 61.365604,76.559769 61.595387,74.337227 
	C60.448994,73.923950 59.136898,73.450943 57.462097,72.954422 
	C55.935558,71.054405 54.771729,69.177887 53.311722,67.142334 
	C54.716087,65.217995 56.086700,63.531368 59.301369,64.282822 
	C60.623333,64.591843 62.668545,61.806892 64.644089,60.220177 
z"/>
<path fill="#B1ACA9" opacity="1.000000" stroke="none" 
	d="
M59.957638,23.158035 
	C60.406353,23.103077 60.855068,23.048120 61.668144,23.372803 
	C63.327778,25.504826 64.623055,27.257206 66.274918,29.064785 
	C70.715103,30.847208 68.845879,32.937420 66.667015,35.031109 
	C65.296837,35.591167 64.251320,36.146835 62.819359,36.729546 
	C61.191929,37.518223 59.950947,38.279854 58.449623,39.030312 
	C57.841946,39.010696 57.494610,39.002258 57.244446,38.681877 
	C57.889847,36.280094 58.438072,34.190250 58.998947,31.732567 
	C59.330902,29.404596 59.650215,27.444466 59.958481,25.192795 
	C59.950840,24.320179 59.954239,23.739107 59.957638,23.158035 
z"/>
<path fill="#747D6E" opacity="1.000000" stroke="none" 
	d="
M40.016930,55.700661 
	C39.414097,55.677891 38.899925,55.424042 38.100822,55.217987 
	C31.989506,46.405071 34.939655,31.007717 48.679558,25.567020 
	C49.128025,26.349566 49.198559,26.774046 48.979416,27.380919 
	C39.091976,32.359612 32.781883,45.593102 40.216244,54.987114 
	C40.216244,54.987114 40.105587,55.469585 40.016930,55.700661 
z"/>
<path fill="#742A64" opacity="1.000000" stroke="none" 
	d="
M29.915497,69.045685 
	C31.855135,69.135956 33.618332,69.535957 35.719368,69.883080 
	C36.086674,70.424179 36.367916,71.185661 36.103031,71.583832 
	C34.795673,73.549019 33.343712,75.418007 31.799856,77.515053 
	C30.431959,75.828423 25.307800,81.477272 24.973043,74.473534 
	C26.558308,72.503105 28.148684,70.929253 29.915497,69.045685 
z"/>
<path fill="#808A76" opacity="1.000000" stroke="none" 
	d="
M82.825928,86.907768 
	C82.359077,87.792213 81.892235,88.676659 80.902023,89.591843 
	C78.941505,88.042374 77.504356,86.462166 76.067200,84.881966 
	C76.760521,83.211235 77.347038,81.485123 78.176727,79.885101 
	C79.033325,78.233200 80.126389,76.703911 81.475632,74.779251 
	C82.275368,75.303673 82.715477,76.169823 83.155594,77.035973 
	C83.748055,78.776115 84.340508,80.516251 84.601822,82.591217 
	C80.024681,82.887375 83.968216,85.820259 82.825928,86.907768 
z"/>
<path fill="#783267" opacity="1.000000" stroke="none" 
	d="
M58.987572,85.328407 
	C59.476616,84.358948 59.957409,83.721794 60.723881,82.944107 
	C66.147636,83.029099 66.386124,87.348961 67.971016,91.558113 
	C65.555489,92.178352 63.199215,92.783379 60.842937,93.388405 
	C60.221733,90.812508 59.600525,88.236610 58.987572,85.328407 
z"/>
<path fill="#B6BBAC" opacity="1.000000" stroke="none" 
	d="
M68.934578,64.061302 
	C69.397820,63.134792 69.829399,62.573776 70.983871,62.003571 
	C73.132790,62.008270 74.558823,62.022160 75.993668,62.394157 
	C76.015656,63.468552 76.028809,64.184837 75.675789,65.054993 
	C75.205276,66.500801 75.100937,67.792747 74.996605,69.084686 
	C73.640411,69.624634 72.284225,70.164589 70.928032,70.704536 
	C70.252991,68.611954 69.577950,66.519371 68.934578,64.061302 
z"/>
<path fill="#E4EADE" opacity="1.000000" stroke="none" 
	d="
M76.041962,64.901123 
	C76.028809,64.184837 76.015656,63.468552 76.191864,62.151367 
	C78.651802,62.396130 80.922371,63.241795 83.178604,64.320290 
	C83.164261,64.553116 83.014069,64.994804 82.809433,65.080475 
	C82.339638,65.326019 82.159798,65.553383 81.814056,66.047073 
	C82.678856,68.449783 83.794876,70.653656 84.910904,72.857536 
	C84.557625,74.185989 84.204346,75.514450 83.503326,76.939438 
	C82.715477,76.169823 82.275368,75.303673 81.532150,74.426331 
	C80.233231,71.966209 79.237419,69.517288 77.757584,66.740341 
	C76.863029,65.908577 76.452499,65.404854 76.041962,64.901123 
z"/>
<path fill="#919D8A" opacity="1.000000" stroke="none" 
	d="
M65.918327,29.009586 
	C64.623055,27.257206 63.327778,25.504826 62.008301,23.383440 
	C62.004902,22.355566 62.025700,21.696697 62.103825,20.715237 
	C62.574219,20.363182 62.987293,20.333721 63.705460,20.244438 
	C64.802216,20.394487 65.593887,20.604361 66.832275,21.233372 
	C67.840981,23.376780 68.402962,25.101048 68.679596,26.978430 
	C67.568932,27.757557 66.743629,28.383572 65.918327,29.009586 
z"/>
<path fill="#BFC0B7" opacity="1.000000" stroke="none" 
	d="
M15.997082,33.485947 
	C15.935887,33.120796 16.358080,32.947102 16.999687,32.966209 
	C18.467600,32.940643 19.293901,32.895969 20.120205,32.851295 
	C24.206099,32.503330 28.291992,32.155365 32.377998,31.808733 
	C27.382391,35.667706 20.599258,36.516029 15.997082,33.485947 
z"/>
<path fill="#445335" opacity="1.000000" stroke="none" 
	d="
M17.840837,30.948900 
	C16.922344,29.914663 16.003849,28.880426 15.072002,27.519154 
	C16.153215,26.125473 17.247778,25.058830 19.047226,23.919613 
	C20.238171,25.247570 20.724232,26.648104 21.210293,28.048637 
	C20.876396,28.521801 20.542501,28.994965 19.816025,29.796581 
	C18.895906,30.399654 18.368372,30.674276 17.840837,30.948900 
z"/>
<path fill="#47553A" opacity="1.000000" stroke="none" 
	d="
M7.954172,32.683830 
	C9.862088,32.740723 11.493610,32.873180 13.613253,33.020321 
	C12.269506,34.625416 10.437638,36.215828 8.008544,37.527969 
	C6.537371,36.704529 5.663426,36.159351 4.789482,35.614178 
	C5.752247,34.662586 6.715012,33.710995 7.954172,32.683830 
z"/>
<path fill="#9DA494" opacity="1.000000" stroke="none" 
	d="
M84.951797,72.590286 
	C83.794876,70.653656 82.678856,68.449783 82.054459,66.022079 
	C82.859871,65.622406 83.015869,65.354591 83.014069,64.994804 
	C83.014069,64.994804 83.164261,64.553116 83.366959,64.086754 
	C83.763290,63.050728 83.956917,62.481060 84.378983,61.811951 
	C85.028122,61.445896 85.448837,61.179283 85.912643,61.341930 
	C86.069237,62.631023 86.182739,63.490856 86.296234,64.350693 
	C86.244972,64.998627 86.193703,65.646553 85.831985,66.860504 
	C85.409309,68.703583 85.297096,69.980629 85.184883,71.257683 
	C85.120819,71.612801 85.056763,71.967926 84.951797,72.590286 
z"/>
<path fill="#E4EADE" opacity="1.000000" stroke="none" 
	d="
M76.015564,85.237427 
	C77.504356,86.462166 78.941505,88.042374 80.687546,89.781906 
	C79.587250,90.842743 77.313080,92.798759 76.912766,92.470390 
	C74.720947,90.672485 73.787712,88.222847 76.015564,85.237427 
z"/>
<path fill="#B1ACA9" opacity="1.000000" stroke="none" 
	d="
M49.269093,27.198524 
	C49.198559,26.774046 49.128025,26.349566 49.021286,25.603615 
	C49.451752,24.874620 49.918423,24.467094 50.839775,24.250774 
	C51.915771,23.991482 52.537090,23.540981 53.158409,23.090481 
	C54.194569,23.054661 55.230728,23.018839 56.645531,23.343344 
	C57.030590,24.301323 57.037003,24.898977 56.653580,25.626392 
	C53.932194,26.236944 51.600643,26.717733 49.269093,27.198524 
z"/>
<path fill="#DBE3D4" opacity="1.000000" stroke="none" 
	d="
M21.552094,27.966675 
	C20.724232,26.648104 20.238171,25.247570 19.340559,23.754353 
	C20.239510,22.958534 21.550013,22.255402 22.860516,21.552269 
	C23.220432,21.938234 23.580351,22.324198 23.940269,22.710163 
	C23.258142,24.435013 22.576017,26.159863 21.552094,27.966675 
z"/>
<path fill="#B5BEAB" opacity="1.000000" stroke="none" 
	d="
M85.491623,71.127136 
	C85.297096,69.980629 85.409309,68.703583 85.826721,67.185623 
	C87.129898,66.676842 88.127876,66.408958 89.432060,66.116562 
	C88.424973,67.726898 87.111671,69.361740 85.491623,71.127136 
z"/>
<path fill="#596547" opacity="1.000000" stroke="none" 
	d="
M4.530590,35.749939 
	C5.663426,36.159351 6.537371,36.704529 7.652611,37.466751 
	C6.344842,37.772697 3.427681,40.617577 4.530590,35.749939 
z"/>
<path fill="#E4EADE" opacity="1.000000" stroke="none" 
	d="
M83.201195,86.895233 
	C83.968216,85.820259 80.024681,82.887375 84.633575,82.958359 
	C84.523140,84.288017 84.049797,85.585358 83.201195,86.895233 
z"/>
<path fill="#919D8A" opacity="1.000000" stroke="none" 
	d="
M57.043411,25.496630 
	C57.037003,24.898977 57.030590,24.301323 57.029373,23.406239 
	C57.768311,23.075960 58.502045,23.043112 59.596710,23.084148 
	C59.954239,23.739107 59.950840,24.320179 59.594448,25.249191 
	C58.508778,25.563633 57.776093,25.530132 57.043411,25.496630 
z"/>
<path fill="#545A4B" opacity="1.000000" stroke="none" 
	d="
M75.675797,65.054993 
	C76.452499,65.404854 76.863029,65.908577 77.401855,66.715820 
	C76.930740,67.710342 76.331322,68.401352 75.364258,69.088524 
	C75.100937,67.792747 75.205276,66.500801 75.675797,65.054993 
z"/>
<path fill="#DBE3D4" opacity="1.000000" stroke="none" 
	d="
M17.782379,31.231609 
	C18.368372,30.674276 18.895906,30.399654 19.716738,30.070377 
	C20.015436,30.727293 20.020836,31.438868 20.073219,32.500870 
	C19.293901,32.895969 18.467600,32.940643 17.227798,32.974571 
	C17.117508,32.480656 17.420715,31.997488 17.782379,31.231609 
z"/>
<path fill="#F2EBED" opacity="1.000000" stroke="none" 
	d="
M52.846352,23.069233 
	C52.537090,23.540981 51.915771,23.991482 51.157555,24.191917 
	C51.525208,23.643896 52.029751,23.345940 52.846352,23.069233 
z"/>
<path fill="#B1B7A7" opacity="1.000000" stroke="none" 
	d="
M91.050011,45.297787 
	C90.741768,47.284187 90.433525,49.270592 89.733307,51.630928 
	C88.908356,52.001690 88.475395,51.998524 87.708923,51.994682 
	C86.932487,51.986259 86.489555,51.978508 86.190262,51.614426 
	C85.888519,47.490429 85.443130,43.722755 85.009201,39.551285 
	C84.370819,36.129635 83.720978,33.111786 83.373825,30.061432 
	C84.081825,30.022518 84.487137,30.016109 84.892448,30.009701 
	C86.254890,33.451763 87.617332,36.893826 88.988068,41.002426 
	C89.614479,42.381725 90.232605,43.094479 90.917267,44.177635 
	C91.005875,44.797958 91.027946,45.047874 91.050011,45.297787 
z"/>
<path fill="#722C64" opacity="1.000000" stroke="none" 
	d="
M94.189835,28.056051 
	C93.707779,28.069733 93.225723,28.083412 92.079155,28.139174 
	C90.608986,28.453241 89.803337,28.725227 88.997681,28.997215 
	C88.555298,28.985868 88.112923,28.974522 87.166878,28.660248 
	C86.732483,26.969398 87.283112,25.372335 86.786850,24.230131 
	C84.747643,19.536657 87.057625,18.583506 91.045563,18.783913 
	C92.196159,21.280035 93.346764,23.776154 94.536545,26.720493 
	C94.391014,27.440105 94.262383,27.735884 94.189835,28.056051 
z"/>
<path fill="#F1F5E9" opacity="1.000000" stroke="none" 
	d="
M83.071136,30.093939 
	C83.720978,33.111786 84.370819,36.129635 84.692322,39.417393 
	C81.928345,36.437454 79.492722,33.187611 76.932442,29.525421 
	C76.576523,28.942816 76.345261,28.772554 76.536270,28.607103 
	C78.984619,28.506395 78.984619,28.506395 77.764328,25.094654 
	C79.038704,23.917095 80.313080,22.739536 82.151924,21.354733 
	C83.013306,22.541183 83.509346,23.928493 83.554306,25.330271 
	C83.605011,26.911369 83.249802,28.505486 83.071136,30.093939 
z"/>
<path fill="#E8D6E1" opacity="1.000000" stroke="none" 
	d="
M83.373825,30.061432 
	C83.249802,28.505486 83.605011,26.911369 83.554306,25.330271 
	C83.509346,23.928493 83.013306,22.541183 82.353050,21.075932 
	C83.859283,14.614290 86.392090,13.792011 91.002350,18.438179 
	C87.057625,18.583506 84.747643,19.536657 86.786850,24.230131 
	C87.283112,25.372335 86.732483,26.969398 86.834930,28.661531 
	C86.512146,29.298462 86.017632,29.631180 85.207787,29.986799 
	C84.487137,30.016109 84.081825,30.022518 83.373825,30.061432 
z"/>
<path fill="#465039" opacity="1.000000" stroke="none" 
	d="
M77.453293,24.899700 
	C78.984619,28.506395 78.984619,28.506395 76.501053,28.676018 
	C76.043556,28.740120 75.998383,28.917595 76.002213,28.952480 
	C76.006042,28.987366 76.072189,28.963894 76.300034,28.659950 
	C75.029213,27.221964 73.530548,26.087921 71.853218,24.712500 
	C71.456352,23.954430 71.238159,23.437740 71.019966,22.921051 
	C73.060730,23.515615 75.101486,24.110180 77.453293,24.899700 
z"/>
<path fill="#D7E0CD" opacity="1.000000" stroke="none" 
	d="
M71.011185,22.959700 
	C71.238159,23.437740 71.456352,23.954430 71.763916,24.986225 
	C71.570641,26.000134 71.287987,26.498932 70.773651,27.124939 
	C70.125488,27.524969 69.709015,27.797791 69.292542,28.070614 
	C69.183342,27.655516 69.074142,27.240416 68.964943,26.825317 
	C68.402962,25.101048 67.840981,23.376780 67.120270,21.342419 
	C67.583939,20.994526 68.206322,20.956728 69.275246,21.259398 
	C70.174515,22.071470 70.627235,22.543079 71.079964,23.014688 
	C71.079964,23.014688 71.002396,22.998350 71.011185,22.959700 
z"/>
<path fill="#949D8F" opacity="1.000000" stroke="none" 
	d="
M91.326538,45.078281 
	C91.027946,45.047874 91.005875,44.797958 90.968269,43.877544 
	C91.268082,42.457386 91.583420,41.707726 91.898750,40.958061 
	C92.929184,40.249844 93.959625,39.541622 95.296600,38.761189 
	C95.773491,39.053043 95.943855,39.417114 96.188187,40.073387 
	C94.709137,41.863323 93.156105,43.361050 91.326538,45.078281 
z"/>
<path fill="#F0F6EA" opacity="1.000000" stroke="none" 
	d="
M91.540314,40.969906 
	C91.583420,41.707726 91.268082,42.457386 90.901741,43.507141 
	C90.232605,43.094479 89.614479,42.381725 89.013527,41.329880 
	C89.747765,40.987774 90.464828,40.984760 91.540314,40.969906 
z"/>
<path fill="#E8D6E1" opacity="1.000000" stroke="none" 
	d="
M89.176758,29.243832 
	C89.803337,28.725227 90.608986,28.453241 91.741272,28.270222 
	C91.163887,28.736277 90.259865,29.113363 89.176758,29.243832 
z"/>
<path fill="#465039" opacity="1.000000" stroke="none" 
	d="
M71.423203,22.644697 
	C70.627235,22.543079 70.174515,22.071470 69.586746,21.274033 
	C70.223282,21.390368 70.994865,21.832537 71.423203,22.644697 
z"/>
<path fill="#E8D6E1" opacity="1.000000" stroke="none" 
	d="
M94.426437,27.930870 
	C94.262383,27.735884 94.391014,27.440105 94.733337,26.983051 
	C94.814964,27.133490 94.738998,27.469589 94.426437,27.930870 
z"/>
<path fill="#B5BEAB" opacity="1.000000" stroke="none" 
	d="
M88.042427,51.995354 
	C88.475395,51.998524 88.908356,52.001690 89.665970,52.001282 
	C94.784279,52.354935 95.989601,54.375050 92.709602,58.188301 
	C90.917030,60.272297 88.880577,62.146515 86.625175,64.233017 
	C86.182739,63.490856 86.069237,62.631023 85.936874,60.949059 
	C86.196182,58.085926 86.474358,56.044933 87.047958,53.869957 
	C87.576401,53.155769 87.809410,52.575562 88.042427,51.995354 
z"/>
<path fill="#F2EBED" opacity="1.000000" stroke="none" 
	d="
M56.653580,25.626392 
	C57.776093,25.530132 58.508778,25.563633 59.605492,25.540735 
	C59.650215,27.444466 59.330902,29.404596 58.571259,31.769600 
	C54.493374,32.433704 50.855831,32.692940 47.096043,32.960884 
	C46.960552,33.494316 47.025501,34.632046 46.515198,35.027561 
	C42.377415,38.234554 43.490265,43.675934 41.061687,47.597103 
	C40.703876,48.174820 41.058563,49.193829 41.038898,50.310707 
	C41.384243,51.048878 41.774284,51.485001 42.122795,52.253906 
	C41.728195,53.380535 41.375122,54.174381 41.022049,54.968227 
	C41.022049,54.968227 40.619114,54.976765 40.417679,54.981941 
	C32.781883,45.593102 39.091976,32.359612 48.979416,27.380917 
	C51.600643,26.717733 53.932194,26.236944 56.653580,25.626392 
z"/>
<path fill="#813E72" opacity="1.000000" stroke="none" 
	d="
M66.953461,55.109924 
	C66.649673,56.363247 66.345879,57.616573 65.714813,58.943810 
	C63.272022,58.863983 61.127300,58.870617 59.052628,58.492680 
	C57.919006,58.286175 56.903950,57.428833 55.873104,56.153282 
	C57.345661,52.766422 58.780533,50.091282 60.559788,47.273933 
	C63.047115,47.748844 65.190063,48.365959 67.354118,49.384258 
	C67.234642,51.560268 67.094055,53.335098 66.953461,55.109924 
z"/>
<path fill="#882876" opacity="1.000000" stroke="none" 
	d="
M42.164326,51.921124 
	C41.774284,51.485001 41.384243,51.048878 41.385319,50.245285 
	C44.005714,48.270485 45.929749,44.248009 48.831676,49.036495 
	C48.813187,49.082527 48.922001,49.062092 49.392506,49.028519 
	C50.838257,48.685226 51.922321,48.355072 53.222397,48.019089 
	C53.438412,48.013256 53.870594,48.011257 53.942379,48.396797 
	C53.649693,50.522163 53.285221,52.261982 52.575623,54.042557 
	C51.153900,55.100277 50.077301,56.117245 49.000702,57.134216 
	C48.148155,56.576862 47.295605,56.019505 46.221970,54.889084 
	C45.827061,51.747486 44.839249,50.482948 42.164326,51.921124 
z"/>
<path fill="#D4A0CA" opacity="1.000000" stroke="none" 
	d="
M52.920753,54.001804 
	C53.285221,52.261982 53.649693,50.522163 54.063553,48.164185 
	C54.387985,47.339806 54.663025,47.133587 55.283184,46.956223 
	C56.425213,46.654682 57.222118,46.324284 58.352203,46.009178 
	C59.130531,46.036549 59.575676,46.048630 60.059162,46.401047 
	C60.136803,46.966305 60.176102,47.191223 60.215401,47.416138 
	C58.780533,50.091282 57.345661,52.766422 55.766071,55.808701 
	C54.969723,56.103058 54.318089,56.030277 53.341782,55.641975 
	C52.984993,54.884907 52.952873,54.443356 52.920753,54.001804 
z"/>
<path fill="#7F3871" opacity="1.000000" stroke="none" 
	d="
M42.122795,52.253906 
	C44.839249,50.482948 45.827061,51.747486 46.002064,54.667458 
	C44.618389,55.035095 43.233532,55.051289 41.435364,55.017857 
	C41.375122,54.174381 41.728195,53.380535 42.122795,52.253906 
z"/>
<path fill="#7F3871" opacity="1.000000" stroke="none" 
	d="
M52.575623,54.042557 
	C52.952873,54.443356 52.984993,54.884907 53.012043,55.659260 
	C51.904102,56.461136 50.801231,56.930214 49.349533,57.266750 
	C50.077301,56.117245 51.153900,55.100277 52.575623,54.042557 
z"/>
<path fill="#F2F3EF" opacity="1.000000" stroke="none" 
	d="
M67.093430,54.737793 
	C67.094055,53.335098 67.234642,51.560268 67.555283,49.246128 
	C68.152702,48.468071 68.570061,48.229324 69.341202,47.956429 
	C70.374420,46.821754 71.229065,45.787403 71.677658,44.599689 
	C72.034508,43.654865 71.578758,42.356136 72.028595,41.501194 
	C74.570404,36.670330 74.622826,36.727432 69.081039,36.008739 
	C68.354355,35.914497 67.686684,35.365231 66.991676,35.026718 
	C68.845879,32.937420 70.715103,30.847208 66.274918,29.064785 
	C66.743629,28.383572 67.568932,27.757557 68.679596,26.978432 
	C69.074142,27.240416 69.183342,27.655516 69.292542,28.070614 
	C69.709015,27.797791 70.125488,27.524969 70.810043,27.453114 
	C71.490776,30.377197 72.519394,31.434572 74.844803,29.412674 
	C75.378441,30.710394 75.699432,31.842505 76.436440,32.526089 
	C81.550621,37.269573 84.273788,43.047550 84.280647,50.042831 
	C84.284515,53.998974 84.196938,57.955204 84.150543,61.911396 
	C83.956917,62.481060 83.763290,63.050728 83.381302,63.853928 
	C80.922371,63.241795 78.651802,62.396130 76.183037,61.793259 
	C74.558823,62.022160 73.132790,62.008270 71.278168,61.986389 
	C73.508759,59.096275 76.154190,56.201252 78.837486,53.341755 
	C79.453758,52.685017 80.200119,52.150356 80.465065,50.539848 
	C76.054504,51.815117 71.643944,53.090389 67.093430,54.737793 
z"/>
<path fill="#7F3871" opacity="1.000000" stroke="none" 
	d="
M53.006382,48.024918 
	C51.922321,48.355072 50.838257,48.685226 49.376129,49.009026 
	C48.998058,49.002674 48.958981,48.970028 48.958981,48.970028 
	C45.929749,44.248009 44.005714,48.270485 41.430016,49.943237 
	C41.058563,49.193829 40.703876,48.174820 41.061687,47.597103 
	C43.490265,43.675934 42.377415,38.234554 46.515198,35.027561 
	C47.025501,34.632046 46.960552,33.494316 47.096043,32.960884 
	C50.855831,32.692940 54.493374,32.433704 58.558609,32.137444 
	C58.438072,34.190250 57.889847,36.280094 57.172836,38.985092 
	C56.990437,40.014446 56.976822,40.428635 56.641281,40.927170 
	C55.876633,41.023731 55.433914,41.035954 54.838573,40.740501 
	C52.470890,41.271477 50.255821,42.110119 48.077152,43.288300 
	C49.744495,45.093529 51.375439,46.559223 53.006382,48.024918 
z"/>
<path fill="#842971" opacity="1.000000" stroke="none" 
	d="
M58.709961,39.041481 
	C59.950947,38.279854 61.191929,37.518223 62.918228,37.075996 
	C65.327896,38.523079 67.252251,39.650764 69.127777,41.199234 
	C69.090546,42.465363 69.102142,43.310715 69.080261,44.366680 
	C69.046791,44.577297 68.998367,45.001060 68.664154,45.163055 
	C63.891666,47.277966 62.363380,44.284264 60.664787,40.953758 
	C59.790508,40.277302 59.250237,39.659393 58.709961,39.041481 
z"/>
<path fill="#E2C0DC" opacity="1.000000" stroke="none" 
	d="
M68.998367,45.001060 
	C68.998367,45.001060 69.046791,44.577297 69.343353,44.162560 
	C69.485489,42.758030 69.331047,41.768238 69.176605,40.778450 
	C67.252251,39.650764 65.327896,38.523079 63.304672,37.048946 
	C64.251320,36.146835 65.296837,35.591167 66.667015,35.031109 
	C67.686684,35.365231 68.354355,35.914497 69.081039,36.008739 
	C74.622826,36.727432 74.570404,36.670330 72.028595,41.501194 
	C71.578758,42.356136 72.034508,43.654865 71.677658,44.599689 
	C71.229065,45.787403 70.374420,46.821754 69.376572,47.583694 
	C69.038223,46.497097 69.018295,45.749077 68.998367,45.001060 
z"/>
<path fill="#D3A3C6" opacity="1.000000" stroke="none" 
	d="
M58.449623,39.030312 
	C59.250237,39.659393 59.790508,40.277302 60.648811,41.245583 
	C60.666550,42.064228 60.366268,42.532505 59.824875,42.997086 
	C59.583763,42.993397 59.103634,42.999962 58.916420,42.802670 
	C58.217434,42.487125 57.705658,42.368870 57.138245,41.898338 
	C57.042801,41.311649 57.003006,41.077236 56.963207,40.842827 
	C56.976822,40.428635 56.990437,40.014446 57.075661,39.297035 
	C57.494610,39.002258 57.841946,39.010696 58.449623,39.030312 
z"/>
<path fill="#F2F3EF" opacity="1.000000" stroke="none" 
	d="
M82.809433,65.080475 
	C83.015869,65.354591 82.859871,65.622406 82.305687,65.823242 
	C82.159798,65.553383 82.339638,65.326019 82.809433,65.080475 
z"/>
<path fill="#7D8275" opacity="1.000000" stroke="none" 
	d="
M84.378983,61.811951 
	C84.196938,57.955204 84.284515,53.998974 84.280647,50.042831 
	C84.273788,43.047550 81.550621,37.269573 76.436440,32.526089 
	C75.699432,31.842505 75.378441,30.710394 75.156662,29.390415 
	C75.656334,28.984617 75.864265,28.974257 76.072189,28.963894 
	C76.072189,28.963894 76.006042,28.987366 76.088425,29.204639 
	C76.466240,29.593861 76.761665,29.765812 77.057091,29.937763 
	C79.492722,33.187611 81.928345,36.437454 84.680862,39.821194 
	C85.443130,43.722755 85.888519,47.490429 86.176605,51.901489 
	C86.263710,53.031231 86.508125,53.517582 86.752541,54.003937 
	C86.474358,56.044933 86.196182,58.085926 85.893776,60.519798 
	C85.448837,61.179283 85.028122,61.445896 84.378983,61.811951 
z"/>
<path fill="#9DA494" opacity="1.000000" stroke="none" 
	d="
M87.047958,53.869957 
	C86.508125,53.517582 86.263710,53.031231 86.032959,52.257816 
	C86.489555,51.978508 86.932487,51.986259 87.708923,51.994682 
	C87.809410,52.575562 87.576401,53.155769 87.047958,53.869957 
z"/>
<path fill="#BAC3B0" opacity="1.000000" stroke="none" 
	d="
M76.932442,29.525421 
	C76.761665,29.765812 76.466240,29.593861 76.084595,29.169754 
	C75.998383,28.917595 76.043556,28.740120 76.078781,28.671207 
	C76.345261,28.772554 76.576523,28.942816 76.932442,29.525421 
z"/>
<path fill="#BAC3B0" opacity="1.000000" stroke="none" 
	d="
M76.300034,28.659950 
	C75.864265,28.974257 75.656334,28.984617 75.136536,29.017239 
	C72.519394,31.434572 71.490776,30.377197 71.041733,27.325909 
	C71.287987,26.498932 71.570641,26.000134 71.942596,25.227608 
	C73.530548,26.087921 75.029213,27.221964 76.300034,28.659950 
z"/>
<path fill="#CB98BF" opacity="1.000000" stroke="none" 
	d="
M60.065987,43.000778 
	C60.366268,42.532505 60.666550,42.064228 60.982811,41.304127 
	C62.363380,44.284264 63.891666,47.277966 68.664154,45.163055 
	C69.018295,45.749077 69.038223,46.497097 69.022789,47.617844 
	C68.570061,48.229324 68.152702,48.468071 67.534180,48.844944 
	C65.190063,48.365959 63.047115,47.748844 60.559784,47.273933 
	C60.176102,47.191223 60.136803,46.966305 60.052040,46.016594 
	C60.026382,44.528133 60.046181,43.764454 60.065987,43.000778 
z"/>
<path fill="#813C72" opacity="1.000000" stroke="none" 
	d="
M53.222397,48.019089 
	C51.375439,46.559223 49.744495,45.093529 48.503197,43.300056 
	C50.881828,43.043575 52.870819,43.114876 54.897285,43.482162 
	C55.283577,44.190186 55.632381,44.602222 55.889244,45.273201 
	C55.510887,45.997215 55.224476,46.462292 54.938065,46.927368 
	C54.663025,47.133587 54.387985,47.339806 53.991768,47.778641 
	C53.870594,48.011257 53.438412,48.013256 53.222397,48.019089 
z"/>
<path fill="#7F3871" opacity="1.000000" stroke="none" 
	d="
M49.014435,49.022163 
	C48.922001,49.062092 48.813187,49.082527 48.831676,49.036495 
	C48.958981,48.970028 48.998058,49.002674 49.014435,49.022163 
z"/>
<path fill="#AD94A2" opacity="1.000000" stroke="none" 
	d="
M55.283184,46.956226 
	C55.224476,46.462292 55.510887,45.997215 56.031624,45.220364 
	C56.265953,44.908585 56.559673,44.984043 56.958687,45.038773 
	C57.617451,45.161499 57.877201,45.229496 58.105259,45.471222 
	C58.073566,45.644943 58.019028,45.993881 58.019028,45.993881 
	C57.222118,46.324284 56.425213,46.654682 55.283184,46.956226 
z"/>
<path fill="#DFBED0" opacity="1.000000" stroke="none" 
	d="
M58.352203,46.009178 
	C58.019028,45.993881 58.073566,45.644943 58.371799,45.274471 
	C58.814568,44.269321 58.959103,43.634644 59.103638,42.999962 
	C59.103634,42.999962 59.583763,42.993397 59.824875,42.997086 
	C60.046181,43.764454 60.026382,44.528133 60.013702,45.676262 
	C59.575676,46.048630 59.130531,46.036549 58.352203,46.009178 
z"/>
<path fill="#D3A3C6" opacity="1.000000" stroke="none" 
	d="
M54.859806,43.186176 
	C52.870819,43.114876 50.881828,43.043575 48.466797,42.960518 
	C50.255821,42.110119 52.470890,41.271477 54.842552,41.097412 
	C54.952702,42.236721 54.906254,42.711449 54.859806,43.186176 
z"/>
<path fill="#E4C9D9" opacity="1.000000" stroke="none" 
	d="
M54.897285,43.482162 
	C54.906254,42.711449 54.952702,42.236721 54.995171,41.405083 
	C55.433914,41.035954 55.876633,41.023731 56.641281,40.927170 
	C57.003006,41.077236 57.042801,41.311649 56.999210,42.222931 
	C56.797104,43.594551 56.678387,44.289295 56.559673,44.984043 
	C56.559673,44.984043 56.265953,44.908585 56.123573,44.961422 
	C55.632381,44.602222 55.283577,44.190186 54.897285,43.482162 
z"/>
<path fill="#945488" opacity="1.000000" stroke="none" 
	d="
M69.127777,41.199234 
	C69.331047,41.768238 69.485489,42.758030 69.376831,43.951942 
	C69.102142,43.310715 69.090546,42.465363 69.127777,41.199234 
z"/>
<path fill="#715E64" opacity="1.000000" stroke="none" 
	d="
M56.958687,45.038773 
	C56.678387,44.289295 56.797104,43.594551 57.054855,42.575211 
	C57.705658,42.368870 58.217434,42.487125 58.916420,42.802670 
	C58.959103,43.634644 58.814568,44.269321 58.403492,45.100746 
	C57.877201,45.229496 57.617451,45.161499 56.958687,45.038773 
z"/>
</svg>